<svg xmlns="http://www.w3.org/2000/svg" viewBox="0 0 1024 1024" fill="none">
  <defs>
    <linearGradient id="atolla-gradient" x1="590" y1="84" x2="478" y2="914" gradientUnits="userSpaceOnUse">
      <stop offset="0%" stop-color="#AA5CC3" />
      <stop offset="22%" stop-color="#8B62D3" />
      <stop offset="50%" stop-color="#3159BD" />
      <stop offset="76%" stop-color="#2D78CE" />
      <stop offset="100%" stop-color="#57B3E8" />
    </linearGradient>
    <linearGradient id="atolla-tentacle-gradient" x1="512" y1="536" x2="512" y2="804" gradientUnits="userSpaceOnUse">
      <stop offset="0%" stop-color="#0F2A66" />
      <stop offset="58%" stop-color="#2E62C6" />
      <stop offset="94%" stop-color="#2B8DD8" />
      <stop offset="100%" stop-color="#00A4DC" />
    </linearGradient>
    <mask id="wave-cutout-mask" maskUnits="userSpaceOnUse" x="220" y="160" width="604" height="430">
      <rect x="220" y="160" width="604" height="430" fill="white" />
      <path d="M360 414L402 414L436 346L472 484L509 284L545 472L583 352L620 414L668 414" fill="none" stroke="black" stroke-width="22" stroke-linecap="round" stroke-linejoin="round" />
    </mask>
  </defs>

  <g id="icon-tentacles" fill="none" stroke="url(#atolla-tentacle-gradient)" stroke-width="26" stroke-linecap="round" stroke-linejoin="round" transform="translate(-245.76 -205.76) scale(1.52)">
    <path d="M350 546C326 586 374 626 346 668C322 706 350 744 372 776" />
    <path d="M456 548C430 590 482 632 450 678C424 716 456 754 484 788" />
    <path d="M568 548C596 592 540 636 574 682C602 718 568 758 538 792" />
    <path d="M674 546C702 588 646 628 680 672C706 708 678 744 650 776" />
  </g>

  <g id="icon-bell" fill="url(#atolla-gradient)" mask="url(#wave-cutout-mask)" transform="translate(-245.76 -205.76) scale(1.52)">
    <path d="M512 164C349 164 232 282 232 416C232 468 265 505 316 528C365 549 436 562 512 562C588 562 659 549 708 528C759 505 792 468 792 416C792 282 675 164 512 164Z" />
  </g>
</svg>
