<svg xmlns="http://www.w3.org/2000/svg" viewBox="0 0 1024 1024" fill="none">
  <defs>
    <linearGradient id="atolla-gradient" x1="590" y1="84" x2="478" y2="914" gradientUnits="userSpaceOnUse">
      <stop offset="0%" stop-color="#AA5CC3" />
      <stop offset="28%" stop-color="#8A64D7" />
      <stop offset="58%" stop-color="#486FCE" />
      <stop offset="82%" stop-color="#2B8DD8" />
      <stop offset="100%" stop-color="#00A4DC" />
    </linearGradient>
  </defs>
  <g id="icon-tentacles" fill="url(#atolla-gradient)" transform="rotate(-45 512 512)">
    <path d="M484 522L584 522L624 550L404 594L694 646L344 706L634 762L414 830L484 892" fill="none" stroke="url(#atolla-gradient)" stroke-width="12" stroke-linecap="round" stroke-linejoin="round" />
  </g>
  <g id="icon-bell" fill="url(#atolla-gradient)" transform="rotate(-45 512 512)">
    <path d="M512 150C360 150 238 272 238 404C238 434 254 460 284 480C308 496 334 508 360 517C388 526 418 533 448 538C468 541 490 543 512 543C534 543 556 541 576 538C606 533 636 526 664 517C690 508 716 496 740 480C770 460 786 434 786 404C786 272 664 150 512 150Z" />
    <rect x="170" y="388" width="56" height="136" rx="28" opacity="0.98" stroke="#111B44" stroke-width="10" />
    <rect x="208" y="376" width="62" height="154" rx="31" opacity="0.98" stroke="#111B44" stroke-width="10" />
    <rect x="250" y="388" width="56" height="136" rx="28" opacity="0.98" stroke="#111B44" stroke-width="10" />
    <rect x="288" y="376" width="62" height="154" rx="31" opacity="0.98" stroke="#111B44" stroke-width="10" />
    <rect x="330" y="388" width="56" height="136" rx="28" opacity="0.98" stroke="#111B44" stroke-width="10" />
    <rect x="368" y="376" width="62" height="154" rx="31" opacity="0.98" stroke="#111B44" stroke-width="10" />
    <rect x="410" y="388" width="56" height="136" rx="28" opacity="0.98" stroke="#111B44" stroke-width="10" />
    <rect x="448" y="376" width="62" height="154" rx="31" opacity="0.98" stroke="#111B44" stroke-width="10" />
    <rect x="490" y="388" width="56" height="136" rx="28" opacity="0.98" stroke="#111B44" stroke-width="10" />
    <rect x="528" y="376" width="62" height="154" rx="31" opacity="0.98" stroke="#111B44" stroke-width="10" />
    <rect x="570" y="388" width="56" height="136" rx="28" opacity="0.98" stroke="#111B44" stroke-width="10" />
    <rect x="608" y="376" width="62" height="154" rx="31" opacity="0.98" stroke="#111B44" stroke-width="10" />
    <rect x="650" y="388" width="56" height="136" rx="28" opacity="0.98" stroke="#111B44" stroke-width="10" />
    <rect x="688" y="376" width="62" height="154" rx="31" opacity="0.98" stroke="#111B44" stroke-width="10" />
    <rect x="730" y="388" width="56" height="136" rx="28" opacity="0.98" stroke="#111B44" stroke-width="10" />
    <rect x="768" y="376" width="62" height="154" rx="31" opacity="0.98" stroke="#111B44" stroke-width="10" />
  </g>
</svg>
