<svg fill="none" height="24" title="pin" viewBox="0 0 24 24" width="24" xmlns="http://www.w3.org/2000/svg">
 <g transform="translate(1,1) scale(1.692) translate(-6,-1)">
  <g transform="scale(0.0292683)">
    <g transform="translate(820,0) scale(-1,1)">
      <path d="M479.5,43.1
        C469.3,52.1 465.6,66.2 470.0,80.1
        C471.0,83.5 471.7,86.7 471.4,87.1
        C470.7,88.2 359.7,183.6 357.4,185.0
        C355.8,186.0 354.7,185.7 350.3,182.7
        C344.3,178.7 335.0,175.4 327.0,174.5
        C313.0,172.9 291.5,182.2 286.4,192.2
        C283.1,198.5 283.5,199.0 320.5,236.0
        L355.0,270.5
        L316.60,303.85
        L254.18,376.30
        L216.25,426.61
        L213.5,434.9
        L217.94,434.24
        L244.11,417.53
        L340.75,339.58
        L381.1,296.6
        L413.9,329.4
        C444.8,360.3 446.9,362.2 450.9,362.7
        C455.0,363.3 455.3,363.1 460.4,357.8
        C463.4,354.7 467.1,349.4 468.8,345.9
        C477.1,328.5 475.1,311.0 462.8,293.9
        C461.8,292.5 468.8,283.9 509.1,236.9
        C535.3,206.4 557.7,180.3 559.1,178.8
        L561.5,176.1
        L567.5,178.1
        C579.7,182.3 594.5,179.1 603.8,170.3
        C607.5,166.8 608.0,165.8 608.0,161.9
        L608.0,157.5
        L549.7,99.2
        C495.1,44.6 491.1,40.8 487.3,40.3
        C483.8,39.8 482.8,40.2 479.5,43.1
        Z" fill="#111827" />
    </g>
  </g>
 </g>
</svg>
