<svg fill="none" height="24" viewBox="0 0 48 24" width="48" xmlns="http://www.w3.org/2000/svg">
  <defs>
    <linearGradient gradientUnits="userSpaceOnUse" id="nav-gradient" x1="32" x2="18" y1="1" y2="23" >
      <stop offset="0%" stop-color="#AA5CC3"/>
      <stop offset="22%" stop-color="#8B62D3"/>
      <stop offset="50%" stop-color="#3159BD"/>
      <stop offset="76%" stop-color="#2D78CE"/>
      <stop offset="100%" stop-color="#57B3E8"/>
    </linearGradient>
    <mask height="70" id="dice-knockout" maskUnits="userSpaceOnUse" width="90" x="-20" y="-20" >
      <rect fill="white" height="70" width="90" x="-20" y="-20" />
      <g transform="rotate(35, 11, 12)">
        <rect fill="black" height="16" rx="2" stroke="black" stroke-width="4" width="14" x="4" y="4" />
      </g>
    </mask>
  </defs>
  <g transform="translate(4.833 0.889) scale(0.926)">
  <g mask="url(#dice-knockout)">
    <rect height="16" rx="2.5" stroke="url(#nav-gradient)" stroke-width="2.16" width="20" x="20" y="5" />
    <path d="M25 3V7" stroke="url(#nav-gradient)" stroke-linecap="round" stroke-width="2.16" />
    <path d="M35 3V7" stroke="url(#nav-gradient)" stroke-linecap="round" stroke-width="2.16" />
    <circle cx="25" cy="10" fill="url(#nav-gradient)" r="1.05" />
    <circle cx="30" cy="10" fill="url(#nav-gradient)" r="1.05" />
    <circle cx="35" cy="10" fill="url(#nav-gradient)" r="1.05" />
    <circle cx="25" cy="13" fill="url(#nav-gradient)" r="1.05" />
    <circle cx="30" cy="13" fill="url(#nav-gradient)" r="1.05" />
    <circle cx="35" cy="13" fill="url(#nav-gradient)" r="1.05" />
    <circle cx="25" cy="16" fill="url(#nav-gradient)" r="1.05" />
    <circle cx="30" cy="16" fill="url(#nav-gradient)" r="1.05" />
    <circle cx="35" cy="16" fill="url(#nav-gradient)" r="1.05" />
  </g>
  <g transform="rotate(35, 11, 12)">
    <rect height="16" rx="2" stroke="url(#nav-gradient)" stroke-width="2.16" width="14" x="4" y="4" />
    <circle cx="7.5" cy="8" fill="url(#nav-gradient)" r="1.5" />
    <circle cx="7.5" cy="12" fill="url(#nav-gradient)" r="1.5" />
    <circle cx="7.5" cy="16" fill="url(#nav-gradient)" r="1.5" />
    <circle cx="14.5" cy="8" fill="url(#nav-gradient)" r="1.5" />
    <circle cx="14.5" cy="12" fill="url(#nav-gradient)" r="1.5" />
    <circle cx="14.5" cy="16" fill="url(#nav-gradient)" r="1.5" />
  </g>
  </g>
</svg>
