<svg xmlns="http://www.w3.org/2000/svg" width="24" height="24" viewBox="0 0 24 24">
  <defs>
    <linearGradient id="nav-gradient" x1="16" y1="1" x2="9" y2="23" gradientUnits="userSpaceOnUse">
      <stop offset="0%" stop-color="#AA5CC3"/>
      <stop offset="22%" stop-color="#8B62D3"/>
      <stop offset="50%" stop-color="#3159BD"/>
      <stop offset="76%" stop-color="#2D78CE"/>
      <stop offset="100%" stop-color="#57B3E8"/>
    </linearGradient>
  </defs>
  <path fill="url(#nav-gradient)" d="M15.5 14h-.79l-.28-.27A6.471 6.471 0 0 0 16 9.5 6.5 6.5 0 1 0 9.5 16c1.61 0 3.09-.59 4.23-1.57l.27.28v.79l5 4.99L20.49 19l-4.99-5zm-6 0C7.01 14 5 11.99 5 9.5S7.01 5 9.5 5 14 7.01 14 9.5 11.99 14 9.5 14z"/>
</svg>
