<svg fill="none" height="24" viewBox="0 0 24 24" width="24" xmlns="http://www.w3.org/2000/svg">
  <g transform="translate(-0.346 0.025) scale(1.029)">
  <path d="M9 3.5C9 2.67157 9.67157 2 10.5 2H13.5C14.3284 2 15 2.67157 15 3.5V4H20V6H18.75V19C18.75 20.2426 17.7426 21.25 16.5 21.25H7.5C6.25736 21.25 5.25 20.2426 5.25 19V6H4V4H9V3.5ZM10.5 4H13.5V3.5H10.5V4ZM7.25 6V19C7.25 19.1381 7.36193 19.25 7.5 19.25H16.5C16.6381 19.25 16.75 19.1381 16.75 19V6H7.25ZM10.25 8.5H12.25V16.5H10.25V8.5ZM13.75 8.5H15.75V16.5H13.75V8.5Z" fill="#ffffff"/>
  </g>
</svg>
